# xmcd
#
# Track frame offsets:
# 150
# 23485
# 47502
# 68465
# 94300
# 119967
# 145255
# 167920
# 193467
# 222025
# 247752
#
# Disc length: 3639 seconds
#
#
# Revision: 5
# Processed by: cddbd v1.5.2PL0 Copyright (c) Steve Scherf et al.
# Submitted via: FreeRIP 2.945 
#
DISCID=9b0e350b
DTITLE=Ridin' Thumb - 21st Century Funk
DYEAR=2000
DGENRE=Jazz
TTITLE0=The Future
TTITLE1=Make It Right
TTITLE2=Like It Like That
TTITLE3=Time
TTITLE4=Nature's Kingdom
TTITLE5=Some People
TTITLE6=Family Affairs
TTITLE7=The Good Men
TTITLE8=So Much Better
TTITLE9=Living It Out
TTITLE10=Pump Up The Thumb
EXTD=Michael Messell
EXTT0=
EXTT1=
EXTT2=
EXTT3=
EXTT4=
EXTT5=
EXTT6=
EXTT7=
EXTT8=
EXTT9=
EXTT10=
PLAYORDER=
